<?xml version="1.0" encoding="UTF-8"?>
<svg id="e" data-name="Layer 5" xmlns="http://www.w3.org/2000/svg" viewBox="0 0 182.3 286.47">
  <defs>
    <style>
      .f {
        fill: #fff;
        stroke: #000;
        stroke-miterlimit: 10;
      }
    </style>
  </defs>
  <polyline class="f" points="99.49 86.81 99.49 182.81 152.96 182.81 152.96 264.51 99.49 264.51 99.49 182.81 35.48 139.91 83.61 139.91 152.96 182.81"/>
  <polygon class="f" points="99.15 169.53 115.91 169.53 123.06 173.62 104.15 173.62 99.15 169.53"/>
  <polyline class="f" points="35.48 139.91 34.87 189.96 99.49 264.51"/>
  <polygon class="f" points="76.01 153.3 87.19 161.51 100.55 161.51 88.1 153.3 76.01 153.3"/>
  <line class="f" x1="36.74" y1="139.91" x2="36.76" y2="50.14"/>
  <line class="f" x1="152.96" y1="182.81" x2="152.96" y2="86.81"/>
  <line class="f" x1="83.61" y1="139.91" x2="83.61" y2="61.79"/>
  <polygon class="f" points="11.89 36.77 82.49 86.81 153.82 86.81 59.56 36.77 11.89 36.77"/>
  <polygon class="f" points="58.55 143.85 62.47 147.17 84.17 147.17 79.23 143.85 58.55 143.85"/>
</svg>