<?xml version="1.0" encoding="UTF-8"?>
<svg id="d" data-name="Layer 6" xmlns="http://www.w3.org/2000/svg" viewBox="0 0 332.43 198.8">
  <defs>
    <style>
      .f, .g {
        fill: #fff;
        stroke: #000;
        stroke-miterlimit: 10;
      }

      .g {
        stroke-width: 2px;
      }
    </style>
  </defs>
  <polygon class="f" points="42.07 67.34 283.73 67.34 307.54 99.53 21.35 99.53 42.07 67.34"/>
  <rect class="f" x="77.78" y="31.62" width="38.1" height="26.19"/>
  <line class="g" x1="96.83" y1="44.72" x2="96.83" y2="74.48"/>
  <line class="g" x1="78.78" y1="74.48" x2="113.73" y2="74.48"/>
  <rect class="f" x="218.76" y="31.62" width="38.1" height="26.19"/>
  <line class="g" x1="237.8" y1="44.72" x2="237.8" y2="74.48"/>
  <line class="g" x1="219.76" y1="74.48" x2="254.71" y2="74.48"/>
  <line class="g" x1="168.45" y1="58.15" x2="168.45" y2="87.91"/>
  <rect class="f" x="149.4" y="45.05" width="38.1" height="26.19"/>
  <line class="g" x1="150.4" y1="87.91" x2="185.35" y2="87.91"/>
  <line class="f" x1="63.49" y1="99.53" x2="63.49" y2="129.24"/>
  <line class="f" x1="259.52" y1="99.13" x2="259.52" y2="127.56"/>
  <line class="f" x1="70.71" y1="135.03" x2="70.71" y2="159.45"/>
  <line class="f" x1="101.55" y1="135.21" x2="101.55" y2="159.62"/>
  <line class="f" x1="113.73" y1="120.13" x2="113.73" y2="143.65"/>
  <line class="f" x1="85.46" y1="120.5" x2="85.46" y2="143.65"/>
  <polyline class="f" points="101.55 135.03 113.73 120.41 101.55 120.41"/>
  <polygon class="f" points="68.4 96.07 101.55 96.07 101.55 135.03 70.71 135.03 68.4 96.07"/>
  <line class="f" x1="119.43" y1="157.61" x2="119.43" y2="183.18"/>
  <line class="f" x1="151.73" y1="157.79" x2="151.73" y2="183.36"/>
  <line class="f" x1="164.48" y1="142" x2="164.48" y2="166.64"/>
  <line class="f" x1="134.88" y1="142.39" x2="134.88" y2="166.64"/>
  <polyline class="f" points="151.73 157.61 164.48 142.3 151.73 142.3"/>
  <polygon class="f" points="117.01 116.81 151.73 116.81 151.73 157.61 119.43 157.61 117.01 116.81"/>
  <line class="f" x1="228.38" y1="156.4" x2="228.38" y2="181.97"/>
  <line class="f" x1="196.09" y1="156.59" x2="196.09" y2="182.15"/>
  <line class="f" x1="183.33" y1="140.8" x2="183.33" y2="165.43"/>
  <line class="f" x1="212.93" y1="141.19" x2="212.93" y2="165.43"/>
  <polyline class="f" points="196.09 156.4 183.33 141.09 196.09 141.09"/>
  <polygon class="f" points="230.8 115.6 196.09 115.6 196.09 156.4 228.38 156.4 230.8 115.6"/>
  <line class="f" x1="279.91" y1="132.11" x2="279.91" y2="156.58"/>
  <line class="f" x1="249.01" y1="132.29" x2="249.01" y2="156.75"/>
  <line class="f" x1="236.8" y1="117.18" x2="236.8" y2="140.75"/>
  <line class="f" x1="265.13" y1="117.55" x2="265.13" y2="140.75"/>
  <polyline class="f" points="249.01 132.11 236.8 117.46 249.01 117.46"/>
  <polygon class="f" points="282.23 93.07 249.01 93.07 249.01 132.11 279.91 132.11 282.23 93.07"/>
</svg>